<?xml version="1.0" standalone="no"?>
<!DOCTYPE svg PUBLIC "-//W3C//DTD SVG 20010904//EN"
 "http://www.w3.org/TR/2001/REC-SVG-20010904/DTD/svg10.dtd">
<svg version="1.0" xmlns="http://www.w3.org/2000/svg"
 width="424.000000pt" height="424.000000pt" viewBox="0 0 424.000000 424.000000"
 preserveAspectRatio="xMidYMid meet">
<metadata>
Created by potrace 1.11, written by Peter Selinger 2001-2013
</metadata>
<g transform="translate(0.000000,424.000000) scale(0.100000,-0.100000)"
fill="#000000" stroke="none">
<path d="M3545 3974 c-33 -14 -130 -55 -215 -91 -85 -36 -173 -73 -195 -82
-22 -10 -66 -29 -99 -42 l-58 -24 48 -44 c27 -24 71 -61 97 -83 58 -45 52 -46
-89 -18 -55 10 -148 28 -209 39 -60 11 -123 23 -140 26 -83 16 -152 28 -170
30 -11 2 -81 14 -155 29 -74 14 -146 27 -160 30 -14 2 -65 12 -115 21 -49 10
-100 19 -111 21 -24 4 -50 -22 -244 -246 -12 -14 -38 -43 -58 -65 -21 -22 -75
-83 -122 -135 -46 -52 -89 -100 -95 -106 -5 -6 -35 -40 -65 -74 -30 -35 -76
-86 -101 -114 -25 -28 -57 -63 -70 -79 -24 -27 -124 -70 -774 -334 -116 -47
-223 -91 -240 -98 -16 -8 -66 -28 -110 -45 -44 -17 -83 -34 -87 -36 -7 -4 52
-80 172 -224 21 -25 122 -148 225 -275 103 -126 194 -239 204 -250 9 -11 117
-144 240 -295 124 -151 254 -311 291 -355 36 -44 84 -102 106 -130 39 -49 56
-70 91 -111 10 -12 119 -146 242 -297 l224 -275 34 21 c18 12 418 288 888 612
470 325 993 685 1163 802 169 116 316 218 327 226 19 14 19 15 -11 43 -64 60
-253 235 -379 350 -71 65 -139 128 -150 139 -57 54 -230 212 -256 234 -16 13
-29 27 -29 31 0 5 41 104 91 221 50 118 97 229 105 248 14 33 15 33 33 16 25
-21 2 -38 299 214 l240 204 -41 32 c-71 53 -506 365 -509 365 -2 -1 -30 -12
-63 -26z m290 -209 c121 -86 222 -159 225 -162 2 -2 -13 -18 -35 -36 -21 -18
-62 -52 -89 -76 -84 -72 -98 -84 -163 -138 -34 -28 -75 -63 -90 -77 -29 -27
-53 -34 -53 -15 0 6 18 54 40 106 22 53 39 97 38 99 -2 1 -16 4 -33 7 -65 11
-183 32 -221 41 -12 2 -39 7 -60 10 -111 17 -91 5 -277 167 l-30 25 139 59
c76 32 167 71 202 86 35 16 67 29 71 29 4 0 25 9 47 20 21 11 46 18 54 16 9
-1 114 -74 235 -161z m-1790 -54 c22 -5 56 -12 75 -15 19 -3 46 -8 60 -11 14
-3 39 -7 55 -10 17 -3 41 -8 55 -10 46 -9 74 -15 135 -25 33 -6 92 -17 130
-25 39 -7 88 -16 110 -19 22 -4 74 -13 115 -21 41 -8 86 -16 100 -19 223 -39
379 -71 395 -81 17 -11 228 -186 263 -219 10 -10 -6 -55 -79 -227 -50 -118
-97 -229 -105 -247 l-14 -34 -32 27 c-18 15 -65 57 -104 94 -38 36 -119 111
-179 166 -60 55 -140 129 -179 165 -111 103 -119 110 -217 200 -51 47 -98 84
-105 82 -7 -1 -195 -77 -416 -168 -222 -90 -448 -183 -503 -205 -55 -23 -109
-45 -120 -50 -92 -40 -138 -59 -142 -59 -9 0 15 31 78 101 36 41 88 99 114
129 27 30 54 60 59 66 6 6 94 104 194 218 101 113 191 206 200 206 10 0 35 -5
57 -9z m1435 -266 c14 -3 49 -9 79 -15 30 -5 56 -12 59 -15 3 -2 -2 -19 -10
-37 -8 -18 -19 -43 -24 -55 -9 -21 -14 -18 -104 59 -102 87 -102 83 0 63z
m-860 -115 c50 -47 109 -101 129 -120 20 -19 84 -78 140 -130 57 -52 118 -108
135 -125 37 -34 213 -196 259 -237 l30 -27 -18 -48 c-10 -26 -28 -70 -41 -98
-12 -27 -93 -216 -179 -420 -217 -513 -235 -554 -257 -604 -11 -24 -28 -67
-39 -95 -11 -28 -25 -55 -30 -60 -5 -6 -9 -18 -9 -28 0 -10 -2 -18 -5 -18 -3
0 -39 18 -80 40 -41 22 -109 58 -150 80 -41 22 -109 58 -150 80 -41 22 -108
57 -148 79 -39 21 -112 60 -162 86 -49 26 -112 60 -140 75 -27 15 -88 48 -135
72 -79 42 -458 244 -615 328 -38 20 -115 61 -170 90 -55 30 -126 68 -159 86
l-58 32 83 93 c46 52 86 96 89 99 3 3 23 25 45 50 104 118 193 218 225 251 26
28 66 50 160 88 69 27 179 72 245 99 66 27 244 100 395 161 151 62 284 116
295 121 47 23 211 88 216 87 4 -1 48 -40 99 -87z m-1531 -507 c-12 -16 -165
-189 -179 -203 -3 -3 -39 -43 -80 -90 -41 -47 -77 -87 -80 -90 -3 -3 -22 -24
-43 -48 l-38 -43 63 -33 c35 -18 157 -84 273 -146 116 -62 257 -137 315 -168
58 -30 136 -73 173 -94 38 -21 70 -38 73 -38 2 0 52 -26 111 -59 59 -32 146
-78 193 -103 240 -128 311 -165 786 -419 50 -27 95 -49 101 -49 6 0 30 46 53
103 23 56 75 179 115 272 40 94 112 262 160 375 47 113 92 219 100 235 7 17
48 113 90 215 43 102 81 188 84 192 7 8 32 -13 190 -160 63 -59 142 -132 175
-162 33 -30 67 -62 76 -70 8 -8 72 -67 140 -130 69 -63 142 -130 163 -150 l39
-36 -819 -564 c-450 -311 -973 -672 -1163 -803 -310 -214 -346 -236 -357 -221
-7 10 -28 36 -47 58 -46 57 -445 544 -716 876 -123 151 -229 280 -235 286 -29
33 -691 848 -698 860 -5 10 -2 16 10 20 10 4 65 26 123 50 123 51 853 351 859
353 2 0 -3 -7 -10 -16z"/>
</g>
</svg>
