<svg xmlns="http://www.w3.org/2000/svg" xmlns:xlink="http://www.w3.org/1999/xlink" version="1.1" x="0px" y="0px" viewBox="0 0 100 125" enable-background="new 0 0 100 100" xml:space="preserve"><path fill="#E3A29B" d="M74.021,47.184c-1.235,0-2.417,0.345-3.436,0.99v-0.526c-0.008-3.548-2.894-6.433-6.431-6.433h-0.012  c-1.574,0-3.019,0.568-4.139,1.512c-0.303-0.59-0.698-1.136-1.181-1.618c-1.214-1.215-2.828-1.884-4.548-1.884h-0.005  c-1.264,0.001-2.44,0.374-3.437,1.007V29.615c0-3.551-2.89-6.439-6.441-6.439c-3.549,0-6.436,2.888-6.436,6.439v16.79  c-1.983-0.794-4.088-0.884-5.668-0.118c-1.435,0.695-2.257,2.019-2.257,3.631l0.003,18.768c-0.002,6.733,2.62,13.064,7.383,17.828  c4.762,4.762,11.093,7.385,17.825,7.387c13.902-0.002,25.214-11.314,25.216-25.217V53.621  C80.457,50.071,77.569,47.184,74.021,47.184z M77.46,68.684C77.458,80.932,67.492,90.898,55.244,90.9  c-5.931-0.002-11.508-2.313-15.703-6.508c-4.196-4.196-6.506-9.774-6.505-15.707l-0.003-18.768c0-0.466,0.164-0.736,0.566-0.931  c0.938-0.456,2.738-0.263,4.358,0.764v14.343c0,0.829,0.672,1.5,1.5,1.5s1.5-0.671,1.5-1.5V29.615c0-1.896,1.541-3.439,3.436-3.439  c1.897,0,3.441,1.542,3.441,3.439v16.049l-0.002,8.887c0,0.828,0.671,1.5,1.5,1.5h0.002c0.828,0,1.5-0.671,1.5-1.5v-8.886  c0-1.895,1.543-3.438,3.439-3.439h0.003c0.916,0,1.777,0.357,2.425,1.004c0.648,0.649,1.005,1.513,1.004,2.436l0.004,8.885  c0,0.829,0.672,1.499,1.5,1.499h0.001c0.828,0,1.499-0.672,1.499-1.5l-0.003-6.968c0.041-1.863,1.567-3.366,3.438-3.366h0.007  c1.89,0,3.43,1.542,3.434,3.435l-0.004,10.117c0,0.828,0.671,1.5,1.499,1.501c0.001,0,0.001,0,0.001,0c0.828,0,1.5-0.672,1.5-1.5  l0.002-4.146c-0.001-0.917,0.354-1.78,1.003-2.429c0.649-0.65,1.515-1.009,2.435-1.009c1.895,0,3.438,1.542,3.438,3.437V68.684z   M69.306,28.589c1.381,0,2.502-1.12,2.502-2.499c0-1.381-1.121-2.501-2.502-2.501s-2.5,1.12-2.5,2.501  C66.806,27.469,67.925,28.589,69.306,28.589z M33.194,26.09c0-1.381-1.121-2.501-2.502-2.501s-2.5,1.12-2.5,2.501  c0,1.379,1.119,2.499,2.5,2.499S33.194,27.469,33.194,26.09z M78.959,23.589c-1.381,0-2.5,1.12-2.5,2.501  c0,1.379,1.119,2.499,2.5,2.499s2.502-1.12,2.502-2.499C81.461,24.709,80.34,23.589,78.959,23.589z M49.999,19.844  c1.381,0,2.502-1.12,2.502-2.499c0-1.381-1.121-2.501-2.502-2.501s-2.5,1.12-2.5,2.501C47.499,18.724,48.618,19.844,49.999,19.844z   M59.652,19.844c1.381,0,2.502-1.12,2.502-2.499c0-1.381-1.121-2.501-2.502-2.501s-2.5,1.12-2.5,2.501  C57.152,18.724,58.271,19.844,59.652,19.844z M21.04,14.844c-1.381,0-2.5,1.12-2.5,2.501c0,1.379,1.119,2.499,2.5,2.499  s2.501-1.12,2.501-2.499C23.541,15.964,22.421,14.844,21.04,14.844z M78.959,19.844c1.381,0,2.502-1.12,2.502-2.499  c0-1.381-1.121-2.501-2.502-2.501s-2.5,1.12-2.5,2.501C76.459,18.724,77.578,19.844,78.959,19.844z M30.692,19.844  c1.381,0,2.502-1.12,2.502-2.499c0-1.381-1.121-2.501-2.502-2.501s-2.5,1.12-2.5,2.501C28.192,18.724,29.312,19.844,30.692,19.844z   M40.346,19.844c1.381,0,2.502-1.12,2.502-2.499c0-1.381-1.121-2.501-2.502-2.501s-2.5,1.12-2.5,2.501  C37.846,18.724,38.965,19.844,40.346,19.844z M59.652,28.594c1.381,0,2.502-1.12,2.502-2.499c0-1.381-1.121-2.501-2.502-2.501  s-2.5,1.12-2.5,2.501C57.152,27.474,58.271,28.594,59.652,28.594z M69.306,11.1c1.381,0,2.502-1.12,2.502-2.499  c0-1.381-1.121-2.501-2.502-2.501s-2.5,1.12-2.5,2.501C66.806,9.98,67.925,11.1,69.306,11.1z M59.652,11.1  c1.381,0,2.502-1.12,2.502-2.499c0-1.381-1.121-2.501-2.502-2.501s-2.5,1.12-2.5,2.501C57.152,9.98,58.271,11.1,59.652,11.1z   M40.346,11.1c1.381,0,2.502-1.12,2.502-2.499c0-1.381-1.121-2.501-2.502-2.501s-2.5,1.12-2.5,2.501  C37.846,9.98,38.965,11.1,40.346,11.1z M30.692,11.1c1.381,0,2.502-1.12,2.502-2.499c0-1.381-1.121-2.501-2.502-2.501  s-2.5,1.12-2.5,2.501C28.192,9.98,29.312,11.1,30.692,11.1z"/></svg>
