<svg xmlns="http://www.w3.org/2000/svg" xmlns:xlink="http://www.w3.org/1999/xlink" version="1.1" viewBox="0 0 96 120" x="0px" y="0px"><path d="M94 93.656c-0.16 0-0.324-0.024-0.484-0.064l-32-8c-1.080-0.264-1.724-1.352-1.452-2.42 0.26-1.080 1.336-1.72 2.42-1.452l29.516 7.372v-43.704l-12.28-1.752c-1.084-0.156-1.856-1.168-1.7-2.256 0.156-1.092 1.188-1.828 2.26-1.704l14 2c0.984 0.14 1.72 0.984 1.72 1.98v48c0 0.616-0.28 1.204-0.764 1.584-0.36 0.268-0.8 0.416-1.236 0.416z" fill="#87b5be"/><path d="M30 93.656c-0.436 0-0.876-0.148-1.236-0.42-0.484-0.384-0.764-0.964-0.764-1.58v-48c0-0.86 0.556-1.624 1.368-1.9l6-2c1.056-0.344 2.18 0.22 2.532 1.256 0.352 1.056-0.22 2.18-1.256 2.54l-4.644 1.54v44l28-7v-28.436c0-1.1 0.9-2 2-2s2 0.9 2 2v30c0 0.916-0.624 1.72-1.516 1.936l-32 8c-0.16 0.040-0.324 0.064-0.484 0.064z" fill="#87b5be"/><path d="M30 93.656c-0.184 0-0.368-0.024-0.556-0.080l-28-8c-0.852-0.248-1.444-1.020-1.444-1.92v-48c0-0.628 0.292-1.22 0.796-1.592 0.5-0.384 1.14-0.508 1.752-0.328l28 8c0.86 0.244 1.452 1.020 1.452 1.92v48c0 0.624-0.292 1.22-0.796 1.592-0.352 0.268-0.776 0.408-1.204 0.408zM4 82.148l24 6.852v-43.836l-24-6.856v43.84z" fill="#87b5be"/><path d="M42.592 49.060c-0.524 0-1.040-0.208-1.416-0.584-0.484-0.484-0.688-1.188-0.536-1.86l4.856-21.328c0.084-0.372 0.268-0.708 0.536-0.968l18.676-18.672c3.636-3.64 9.66-4.456 12.588-1.528l8.24 8.24c1.536 1.528 2.164 3.864 1.74 6.396-0.384 2.252-1.576 4.5-3.256 6.2l-18.676 18.68c-0.26 0.26-0.596 0.448-0.968 0.536l-21.324 4.852c-0.16 0.020-0.308 0.036-0.46 0.036zM49.264 26.74l-4.016 17.664 17.664-4.016 18.26-18.272c1.116-1.116 1.904-2.588 2.144-4.032 0.212-1.248-0.012-2.296-0.616-2.908l-8.24-8.244c-0.584-0.58-1.416-0.696-2.028-0.696-1.656 0-3.54 0.852-4.916 2.228l-18.252 18.276z" fill="#87b5be"/><path d="M65.181 8.471l16.008 15.999-2.828 2.829-16.008-15.999 2.828-2.829z" fill="#87b5be"/><path d="M65.196 42.928c-9.148 0-18.468-9.328-18.468-18.468h4c0 6.896 7.58 14.468 14.468 14.468v4z" fill="#87b5be"/><path d="M70.59 16.245l2.829 2.833-16.713 16.69-2.829-2.833 16.713-16.69z" fill="#87b5be"/></svg>
